<svg xmlns="http://www.w3.org/2000/svg" width="48" height="48" viewBox="0 0 48 48" fill="none">
  <path d="M44 29.5V18.5C44 16 42 14 39.5 14H8.5C6 14 4 16 4 18.5V29.5C4 32 6 34 8.5 34H39.5C42 34 44 32 44 29.5Z" fill="#016FD0"/>
  <path d="M10 24L12.5 19.5H15L12.5 24L15 28.5H12.5L10 24Z" fill="white"/>
  <path d="M15 24L17.5 19.5H20L17.5 24L20 28.5H17.5L15 24Z" fill="white"/>
  <path d="M20 19.5H27.5V21H21.5V22.5H27.5V24H21.5V25.5H27.5V27H20V19.5Z" fill="white"/>
  <path d="M28 19.5H31L33.5 23.5V19.5H36.5V28.5H33.5L31 24.5V28.5H28V19.5Z" fill="white"/>
</svg>
