<svg xmlns="http://www.w3.org/2000/svg" width="48" height="48" viewBox="0 0 48 48" fill="none">
  <path d="M29.8 14H18.2V34H29.8V14Z" fill="#FF5F00"/>
  <path d="M19.1 24C19.1 20 21 16.5 24 14C21.8 12.2 19 11.2 16 11.2C9.4 11.2 4 17 4 24C4 31 9.4 36.8 16 36.8C19 36.8 21.8 35.8 24 34C21 31.5 19.1 28 19.1 24Z" fill="#EB001B"/>
  <path d="M44 24C44 31 38.6 36.8 32 36.8C29 36.8 26.2 35.8 24 34C27 31.5 28.9 28 28.9 24C28.9 20 27 16.5 24 14C26.2 12.2 29 11.2 32 11.2C38.6 11.2 44 17 44 24Z" fill="#F79E1B"/>
</svg>
