<svg xmlns="http://www.w3.org/2000/svg" width="48" height="48" viewBox="0 0 48 48" fill="none">
  <path d="M40 14H8C5.8 14 4 15.8 4 18V30C4 32.2 5.8 34 8 34H40C42.2 34 44 32.2 44 30V18C44 15.8 42.2 14 40 14Z" fill="#009EE3"/>
  <path d="M16.5 28.5C15.1 28.5 14 27.4 14 26V22C14 20.6 15.1 19.5 16.5 19.5H18.5C19.9 19.5 21 20.6 21 22V26C21 27.4 19.9 28.5 18.5 28.5H16.5Z" fill="#FFFFFF"/>
  <path d="M24 28.5C22.6 28.5 21.5 27.4 21.5 26V22C21.5 20.6 22.6 19.5 24 19.5H26C27.4 19.5 28.5 20.6 28.5 22V26C28.5 27.4 27.4 28.5 26 28.5H24Z" fill="#FFFFFF"/>
  <path d="M31.5 28.5C30.1 28.5 29 27.4 29 26V22C29 20.6 30.1 19.5 31.5 19.5H33.5C34.9 19.5 36 20.6 36 22V26C36 27.4 34.9 28.5 33.5 28.5H31.5Z" fill="#FFFFFF"/>
</svg>
