<svg xmlns="http://www.w3.org/2000/svg" width="48" height="48" viewBox="0 0 48 48" fill="none">
  <path d="M18.7 31H14.8L17.2 17H21.1L18.7 31Z" fill="#00579F"/>
  <path d="M33.1 17.3C32.2 17 30.8 16.7 29.1 16.7C25.5 16.7 22.9 18.6 22.9 21.3C22.8 23.3 24.7 24.4 26.1 25.1C27.5 25.8 28 26.2 28 26.8C28 27.7 26.9 28.1 25.9 28.1C24.4 28.1 23.6 27.9 22.3 27.3L21.7 27.1L21.1 30.5C22.2 30.9 24 31.3 25.9 31.3C29.8 31.3 32.3 29.4 32.3 26.5C32.3 24.9 31.3 23.7 29.2 22.7C27.9 22.1 27.1 21.7 27.1 21C27.1 20.4 27.8 19.8 29.2 19.8C30.4 19.8 31.3 20 32 20.3L32.4 20.5L33.1 17.3Z" fill="#00579F"/>
  <path d="M38.1 17H35.1C34.2 17 33.5 17.3 33.1 18.2L27.7 31H31.6C31.6 31 32.2 29.5 32.3 29.2C32.7 29.2 36.2 29.2 36.7 29.2C36.8 29.6 37.1 31 37.1 31H40.6L38.1 17ZM33.5 26.1C33.8 25.3 35 22.1 35 22.1C35 22.1 35.4 21 35.6 20.3L35.8 21.9C35.8 21.9 36.5 25.4 36.7 26.1H33.5Z" fill="#00579F"/>
  <path d="M11.5 17L7.8 26.7L7.4 24.9C6.7 22.6 4.9 20.1 2.9 18.7L6.3 31H10.3L16.5 17H11.5Z" fill="#00579F"/>
  <path d="M5.2 17H0.1L0 17.3C4 18.4 6.6 21.3 7.4 24.9L6.3 18.2C6.1 17.3 5.7 17.1 5.2 17Z" fill="#FAA61A"/>
</svg>
